# xmcd
#
# Track frame offsets:
#	150
#	17014
#	29770
#	44397
#	59819
#	75168
#	92412
#	108613
#	122832
#	140703
#	165365
#	181141
#	191289
#	206875
#	221998
#	238896
#	254569
#	268631
#	286396
#	299518
#
# Disc length: 4246 seconds
#
# Revision: 1
# Processed by: cddbd v1.4PL0 Copyright (c) Steve Scherf et al.
# Submitted via: audiograbber 1.80
#
DISCID=38109414
DTITLE=Various Artist - Hott Country 020
DYEAR=1900
DGENRE=
TTITLE0=Collin Raye - What The Heart Wants
TTITLE1=Lorrie Morgan - Go Away
TTITLE2=Bryan White - Love Is The Right Place
TTITLE3=Mark Chesnutt - Thank God For Believers
TTITLE4=John Anderson - Somebody Slap Me
TTITLE5=Chely Wright - Shut Up And Drive
TTITLE6=Kinleys - Please
TTITLE7=Clay Walker - Watch This
TTITLE8=Clint Black - Something That We Do
TTITLE9=Kathy Mattea - Love Travels
TTITLE10=River Road - I Broke It, I'll Fix It
TTITLE11=Jack Ingram - Flutter
TTITLE12=Wade Hayes - Wichita Lineman
TTITLE13=Brady Seals - Natural Born Lovers
TTITLE14=James Bonamy - Naked To The Pain
TTITLE15=Farmer's Daughter - You Said
TTITLE16=Raybon Brothers - The Way She's Looking
TTITLE17=Matt King - A Woman Like You
TTITLE18=The Ranch - Walkin' The Country
TTITLE19=Jamie Warren - Rainman
EXTD=
EXTT0=
EXTT1=
EXTT2=
EXTT3=
EXTT4=
EXTT5=
EXTT6=
EXTT7=
EXTT8=
EXTT9=
EXTT10=
EXTT11=
EXTT12=
EXTT13=
EXTT14=
EXTT15=
EXTT16=
EXTT17=
EXTT18=
EXTT19=
PLAYORDER=
